<svg id="SvgjsSvg1001" width="288" height="288" xmlns="http://www.w3.org/2000/svg" version="1.1" xmlns:xlink="http://www.w3.org/1999/xlink" xmlns:svgjs="http://svgjs.com/svgjs"><rect id="SvgjsRect1011" width="288" height="288" rx="20" ry="20" transform="matrix(0.7916,0,0,0.7916,30.009600000000006,30.009600000000006)" fill="#ffffff"></rect><defs id="SvgjsDefs1002"></defs><g id="SvgjsG1008" transform="matrix(0.4652,0,0,0.4652,78.95409748840332,71.36729164123535)"><svg xmlns="http://www.w3.org/2000/svg" viewBox="0 0 40 40" width="288" height="288"><path fill-rule="evenodd" d="M19.91 3.54a9.16 9.16 0 0 0-2.41.66c-.42.18-.51.25-.51.39a1.28 1.28 0 0 1-.61.72 2.23 2.23 0 0 1-.89.22h-.1s.35.56.55.65.07.13-.42.14-.63.09-.76.37c-.06.13 0 .16.09.38.32.49.32.77 0 1s-.44.4-.11 1.72c.13.51.24 1 .26 1s0 .14-.05.14a.47.47 0 0 0-.24.17c-.18.33-.13.83.2 1.92a9.1 9.1 0 0 1 .33 1.22c.18.87.39 1.18.82 1.17.16 0 .17 0 .19.25a3.71 3.71 0 0 0 .28 1.34 1.14 1.14 0 0 1 .11.37 3.52 3.52 0 0 0 1.05 1.88 8.56 8.56 0 0 0 1.06.86 4.73 4.73 0 0 1 .45.35h-.5c-.48 0-.69 0-.75.1a4.11 4.11 0 0 0 0 1.27c.08.14.31.15 1.79.09.38 0 .36 0 .21.31l-.33.84c-.29.73-.55 1.33-.83 1.88s-.28.47.07.55a1.56 1.56 0 0 1 .35.13c.31.16.3.16.45-.14a18.87 18.87 0 0 0 .81-2.06.6.6 0 0 1 .08-.2s0 2 0 2.43 0 .47.33.38a3.05 3.05 0 0 1 .41-.05c.25 0 .25 0 .29-.29a12.09 12.09 0 0 0-.34-3.56c-.07-.23-.07-.24 0-.25a7.61 7.61 0 0 1 1.24 0c.46 0 .52 0 .56-.05a5.32 5.32 0 0 0 0-1.26c-.07-.14-.4-.21-.92-.18-.31 0-.31 0-.1-.12a8.8 8.8 0 0 0 2-1.79 6.05 6.05 0 0 0 .82-2.69c0-.33 0-.34.23-.35.44 0 .58-.25.94-1.56a9.18 9.18 0 0 0 .48-2.22c0-.4 0-.48-.34-.66-.08-.05-.08 0 .1-.6a5 5 0 0 0 .27-1v-.14l-.11-.1a.7.7 0 0 1-.26-.56 5.56 5.56 0 0 0-4.68-5 10.56 10.56 0 0 0-1.59 0zm1 .51a5.89 5.89 0 0 1 3 1.21 4.15 4.15 0 0 1 1.65 3 6.14 6.14 0 0 1-.08 1.93c-.08.09-.1.05-.23-.39A7.18 7.18 0 0 0 24.5 8c-.17-.27-.19-.21-.19.42V9l.07.09a2.25 2.25 0 0 1 .46 1c.09.37.12.67.06.69a2.16 2.16 0 0 1-.35 0 11.39 11.39 0 0 0-1.88 0c-.94 0-1.11.07-1.56.4-.25.19-.27.2-.41.17a1.16 1.16 0 0 0-.49 0c-.16 0-.2 0-.42-.15-.48-.39-.62-.42-2.14-.42H16.4v-.18a.57.57 0 0 1 .38-.57c.2-.09.18-.05.3-.64A3.16 3.16 0 0 1 18.32 7a2.25 2.25 0 0 1 2.06.07c.15.08.16.07.38-.11s.25-.22 0-.5a3 3 0 0 0-3.53-.66 2 2 0 0 1-.31.1c-.06-.17.81-.77 1.4-1 .39-.14.36-.28-.07-.28-.16 0-.19 0-.1-.13a5.35 5.35 0 0 1 2.77-.5zm-2.59 2.31c.1 0 .09.06-.11.15a2.5 2.5 0 0 0-1.31 1.24.89.89 0 0 1-.27.35 1.14 1.14 0 0 0-.46.69 5.84 5.84 0 0 0-.29 1.58c0 .35 0 .4-.2.48s-.13.1-.27-.43c-.39-1.5-.39-1.5.16-2.29.14-.2.11-.46-.08-.86-.11-.27-.12-.27.32-.27a4.77 4.77 0 0 0 1.35-.41 1.7 1.7 0 0 1 1.16-.21zM16.56 11c.12.11 0 .25-.18.19a.49.49 0 0 0-.15 0c-.09 0-.13-.08-.06-.12a.25.25 0 0 1 .11 0h.1a.17.17 0 0 1 .18 0zm8.14 0c.16 0 .21.16.06.16h-.34a.12.12 0 0 1 .11-.21h.17zm-7.16.28s0 .06-.1.11l-.34.22c-.26.17-.32.19-.39.11s0-.28.16-.4.65-.13.67 0zm6.24 0c.26.06.31.48.06.48s-.67-.38-.63-.47.41-.05.57 0zm-5.07.08c.11.05.22.19.2.25s-.05 0-.24 0a1.57 1.57 0 0 0-.77.17c-.26.12-.4.16-.47.12s-.07-.12.23-.29l.27-.15a.83.83 0 0 1 .78-.12zm4.18.07a1.13 1.13 0 0 1 .26.2l.32.25c.17.11.18.12.13.16s-.32 0-.56-.21a.73.73 0 0 0-.71-.15c-.33.05-.36 0-.06-.2a.61.61 0 0 1 .62-.05zM25 11.4c.05.09.06.23 0 .69s0 .64.27.36c.12-.12.13-.17.11-.37s.1-.59.29-.54.32.34 0 1.42c-.06.24-.15.57-.19.74-.24 1-.4 1.23-.7 1.11-.13-.06-.17 0-.31.2a1 1 0 0 0-.19.65 3.83 3.83 0 0 1-2.1 3.55c-.31.12-.39.12-.53 0s-.18-.12-.18-.08v.26c0 .28 0 .33-.25.62a1.22 1.22 0 0 0-.32.7c-.06.4-1-.53-1.26-1.25a1.27 1.27 0 0 1 0-.77 2.22 2.22 0 0 0 .13-1.08v-.14c0-.02.11 0 .28.26s.17 0 .13-.34a.31.31 0 0 0-.28-.32c-.38-.11-.12-.34.38-.32a3.39 3.39 0 0 0 1.48-.13c.34-.1.36-.1.53 0s.17.14.19.51c0 .63.25.59.38-.06a1 1 0 0 1 .21-.53 1.54 1.54 0 0 0 .33-1.19c0-.32-.08-.4-.33-.52a1.57 1.57 0 0 1-.55-.55c-.3-.44-.44-.57-.73-.69s-.33-.05-.27.18 0 .38-.28.54a1.19 1.19 0 0 1-1.31 0c-.39-.27-.44-.61-.17-1.18a1.56 1.56 0 0 0 .18-.67c.09-.64.15-.78.38-.78s.27.08.32.31c.12.44.3.62.49.48s.15-.14.08-.28 0-.23.18-.12a2 2 0 0 0 1.14.14c.39-.08.55-.05.63.12s.09.13.26.16.3.07.24.24a.82.82 0 0 1-.66.46c-.22 0-.23 0-.23.15s.17.23.54.13.73-.45.9-1.35c.12-.57.12-.58.38-.67s.29-.07.33 0zm-9.45.21a.36.36 0 0 1 .13.44c-.07.2-.07.26.09 1.14.14.72.1.9-.11.71a.48.48 0 0 1-.18-.32c0-.07-.1-.39-.2-.73-.18-.67-.21-.85-.15-1a.27.27 0 0 1 .42-.19zm2.89.5a1.6 1.6 0 0 0 .65 0c.23 0 .26 0 .15.11s-.09.11 0 .24c.16.32-.21.62-.84.67-.2 0-.22 0-.22.16s.06.16.31.16h.28a.42.42 0 0 1-.07.13 1.22 1.22 0 0 0-.1.23c0 .16-.05.17-.3.27a2.81 2.81 0 0 0-.35.18c-.63.46-.94.32-1.23-.54-.2-.6-.15-.7.24-.51s.37.14.43 0 .07-.21-.14-.3-.6-.55-.42-.67.11 0 .22.07.29.18.43 0a.89.89 0 0 1 1-.29zm.88 1.4v.1a.62.62 0 0 0 0 .38c.09.26 0 .37-.21.2s-.09-.92.21-.68zm2.49 1.1a2.51 2.51 0 0 1 .25.27 1.65 1.65 0 0 0 .55.47c.62.19-.49.47-1.32.33a3.85 3.85 0 0 1-.49-.12.82.82 0 0 0-.67 0 2.91 2.91 0 0 1-1.86 0c-.23-.12-.23-.18 0-.29a2.58 2.58 0 0 0 .45-.26c.48-.31.7-.37.92-.22a1.09 1.09 0 0 0 1.37.08.57.57 0 0 1 .23-.16l.22-.1c.17-.1.22-.11.33 0zm-4.33.72c0 .05.05.09.07.31.06.93.37 1.92.58 1.92 0 0 .07 0 .14-.18.15-.35.22-.37.29-.11a9.63 9.63 0 0 0 .3 1c.09.26.06.32-.2.32-.91 0-2.22-2.1-1.82-2.92.15-.3.49-.46.64-.31zm3.8.71c.32 0 .31.09 0 .18a5.08 5.08 0 0 1-1.28.09c-.17 0-.37-.21-.29-.25a8.89 8.89 0 0 1 1.61 0zm6.88 11.24c-2.44.17-3.92 1.52-3.92 3.57s2.07 3.1 5 2.52c.61-.12.57-.08.67-.65s.11-.59-.37-.46c-2.14.54-3.52-.5-3.07-2.31a2.11 2.11 0 0 1 1.77-1.69c.7-.09 1.15.2 1.19.76 0 .24 0 .24.39.24s.32.07.52-.81.23-.93-.19-1a6.33 6.33 0 0 0-2-.14m-16.3.1a2.64 2.64 0 0 0-.12.52c0 .07 0 .1.18.18a.4.4 0 0 1 .25.37c0 .13-.61 3.08-.74 3.52a.93.93 0 0 1-.54.71c-.23.06-.23.06-.28.28-.13.49-.29.45 1.53.45s1.57 0 1.64-.29.08-.41-.09-.48a.51.51 0 0 1-.25-.25 15.17 15.17 0 0 1 .32-1.63c0-.06 0-.06.32.47.85 1.52 1.25 1.95 2 2.12a12 12 0 0 0 2 0 1.55 1.55 0 0 0 .14-.52c0-.09-.07-.14-.24-.16-.35 0-.4-.08-1.46-1.51-.8-1.09-.83-1.13-.79-1.17.22-.21 2.15-1.78 2.25-1.83a1.78 1.78 0 0 1 .54-.17c.17 0 .2-.05.25-.28.1-.45.24-.41-1.35-.41s-1.38 0-1.41.12c-.11.45-.11.51 0 .59s.23.13-.85 1l-1.24 1s.35-1.67.39-1.75a.61.61 0 0 1 .31-.28c.16-.07.16-.08.22-.33.09-.43.26-.39-1.49-.39h-1.46zm7.39 0a2.09 2.09 0 0 0-.13.52c0 .07 0 .09.18.17a.68.68 0 0 1 .18.15c.13.18.14.1-.43 2.69s-.53 2.39-.47 2.45a16.17 16.17 0 0 0 2.51 0 1.65 1.65 0 0 0 .14-.62.37.37 0 0 0-.09-.09c-.37-.18-.38-.29-.08-1.54h1a6.35 6.35 0 0 0 1.05 0 6.46 6.46 0 0 0 .23-1c0-.13 0-.13-1.05-.13h-1l.17-.82.17-.77h.7c1.05 0 1.17 0 1.17.56 0 .23 0 .25.41.24h.32a16.34 16.34 0 0 0 .38-1.63c0-.12.17-.12-2.73-.12h-2.6z" fill="#000000" class="svgShape color000000-0 selectable"></path></svg></g></svg>